<svg xmlns="http://www.w3.org/2000/svg" xml:space="preserve" width="2000" height="1500" data-id="lg_pzLtwagOFOFddBLWjv" data-version="1" viewBox="0 0 2000 1500"><path stroke="transparent" d="M0 0h2000v1500H0z"/><g data-padding="20"><path fill="#2c106a" d="M642.753 885.062a41.626 41.626 0 1 0 0 83.252 41.626 41.626 0 1 0 0-83.252m0-37.7a8.162 8.162 0 1 0 0 16.323 8.162 8.162 0 1 0 0-16.324m71.164-71.161a8.162 8.162 0 1 0 0 16.324 8.162 8.162 0 1 0 0-16.324m0 142.326a8.162 8.162 0 1 0 0 16.324 8.162 8.162 0 1 0 0-16.324m0-104.629a41.626 41.626 0 1 0 0 83.253 41.626 41.626 0 1 0 0-83.253m-71.164-71.161a41.626 41.626 0 1 0 0 83.252 41.626 41.626 0 1 0 0-83.252m0-37.698a8.162 8.162 0 1 0 0 16.324 8.162 8.162 0 1 0 0-16.324m71.164-71.162a8.162 8.162 0 1 0 0 16.324 8.162 8.162 0 1 0 0-16.324m-71.164-33.464a41.626 41.626 0 1 0 0 83.252 41.626 41.626 0 1 0 0-83.252m71.164 71.162a41.626 41.626 0 1 0 0 83.252 41.626 41.626 0 1 0 0-83.252m71.16 213.488a41.626 41.626 0 1 0 0 83.252 41.626 41.626 0 1 0 0-83.252m0-37.7a8.162 8.162 0 1 0 0 16.323 8.162 8.162 0 1 0 0-16.324M856.24 776.2a8.162 8.162 0 1 0 0 16.324 8.162 8.162 0 1 0 0-16.324m0 142.326a8.162 8.162 0 1 0 0 16.324 8.162 8.162 0 1 0 0-16.324m0-104.629a41.626 41.626 0 1 0 0 83.253 41.626 41.626 0 1 0 0-83.253m-71.164-71.161a41.626 41.626 0 1 0 0 83.252 41.626 41.626 0 1 0 0-83.252m0-37.698a8.162 8.162 0 1 0 0 16.324 8.162 8.162 0 1 0 0-16.324m71.164-71.162a8.162 8.162 0 1 0 0 16.324 8.162 8.162 0 1 0 0-16.324m-71.164-33.464a41.626 41.626 0 1 0 0 83.252 41.626 41.626 0 1 0 0-83.252m142.326 284.65a41.626 41.626 0 1 0 0 83.252 41.626 41.626 0 1 0 0-83.252m0-37.7a8.162 8.162 0 1 0 0 16.323 8.162 8.162 0 1 0 0-16.324m0-104.625a41.626 41.626 0 1 0 0 83.252 41.626 41.626 0 1 0 0-83.252m0-37.698a8.162 8.162 0 1 0 0 16.324 8.162 8.162 0 1 0 0-16.324m0-104.626a41.626 41.626 0 1 0 0 83.252 41.626 41.626 0 1 0 0-83.252m-71.162 71.162a41.626 41.626 0 1 0 0 83.252 41.626 41.626 0 1 0 0-83.252"/><path fill="#2c106a" d="M713.651 670.864a41.626 41.626 0 1 0 0 83.252 41.626 41.626 0 1 0 0-83.252m0-37.698a8.162 8.162 0 1 0 0 16.324 8.162 8.162 0 1 0 0-16.324m71.162-71.162a8.162 8.162 0 1 0 0 16.324 8.162 8.162 0 1 0 0-16.324m0 142.324a8.162 8.162 0 1 0 0 16.324 8.162 8.162 0 1 0 0-16.324m0-104.626a41.626 41.626 0 1 0 0 83.252 41.626 41.626 0 1 0 0-83.252M713.65 528.54a41.626 41.626 0 1 0 0 83.252 41.626 41.626 0 1 0 0-83.252m0-37.697a8.162 8.162 0 1 0 0 16.324 8.162 8.162 0 1 0 0-16.324m71.162-71.165a8.162 8.162 0 1 0 0 16.324 8.162 8.162 0 1 0 0-16.324m-71.162-33.464a41.626 41.626 0 1 0 0 83.252 41.626 41.626 0 1 0 0-83.252m71.162 71.164a41.626 41.626 0 1 0 0 83.253 41.626 41.626 0 1 0 0-83.253m71.164 213.486a41.626 41.626 0 1 0 0 83.252 41.626 41.626 0 1 0 0-83.252m0-37.698a8.162 8.162 0 1 0 0 16.324 8.162 8.162 0 1 0 0-16.324m71.16-71.162a8.162 8.162 0 1 0 0 16.324 8.162 8.162 0 1 0 0-16.324m0 142.324a8.162 8.162 0 1 0 0 16.324 8.162 8.162 0 1 0 0-16.324m0-104.626a41.626 41.626 0 1 0 0 83.252 41.626 41.626 0 1 0 0-83.252m-71.16-71.162a41.626 41.626 0 1 0 0 83.252 41.626 41.626 0 1 0 0-83.252m0-37.697a8.162 8.162 0 1 0 0 16.324 8.162 8.162 0 1 0 0-16.324m71.16-71.165a8.162 8.162 0 1 0 0 16.324 8.162 8.162 0 1 0 0-16.324m-71.16-33.464a41.626 41.626 0 1 0 0 83.252 41.626 41.626 0 1 0 0-83.252m142.32 284.65a41.626 41.626 0 1 0 0 83.252 41.626 41.626 0 1 0 0-83.252m0-37.698a8.162 8.162 0 1 0 0 16.324 8.162 8.162 0 1 0 0-16.324m0-104.626a41.626 41.626 0 1 0 0 83.252 41.626 41.626 0 1 0 0-83.252m0-37.697a8.162 8.162 0 1 0 0 16.324 8.162 8.162 0 1 0 0-16.324m0-104.629a41.626 41.626 0 1 0 0 83.252 41.626 41.626 0 1 0 0-83.252m-71.16 71.164a41.626 41.626 0 1 0 0 83.253 41.626 41.626 0 1 0 0-83.253m.552 427.818a41.626 41.626 0 1 0 0 83.252 41.626 41.626 0 1 0 0-83.252m0-37.7a8.162 8.162 0 1 0 0 16.324 8.162 8.162 0 1 0 0-16.324m71.162-71.16a8.162 8.162 0 1 0 0 16.325 8.162 8.162 0 1 0 0-16.324m0 142.323a8.162 8.162 0 1 0 0 16.324 8.162 8.162 0 1 0 0-16.324m0-104.628a41.626 41.626 0 1 0 0 83.252 41.626 41.626 0 1 0 0-83.252m-71.162-71.16a41.626 41.626 0 1 0 0 83.253 41.626 41.626 0 1 0 0-83.253"/><path fill="#2c106a" d="M927.689 705.172a8.162 8.162 0 1 0 0 16.324 8.162 8.162 0 1 0 0-16.324m71.162-71.161a8.162 8.162 0 1 0 0 16.324 8.162 8.162 0 1 0 0-16.324m-71.162-33.465a41.626 41.626 0 1 0 0 83.253 41.626 41.626 0 1 0 0-83.253m71.162 71.162a41.626 41.626 0 1 0 0 83.252 41.626 41.626 0 1 0 0-83.252m71.164 213.488a41.626 41.626 0 1 0 0 83.252 41.626 41.626 0 1 0 0-83.252m0-37.7a8.162 8.162 0 1 0 0 16.324 8.162 8.162 0 1 0 0-16.324m71.162-71.16a8.162 8.162 0 1 0 0 16.325 8.162 8.162 0 1 0 0-16.324m0 142.323a8.162 8.162 0 1 0 0 16.324 8.162 8.162 0 1 0 0-16.324m0-104.628a41.626 41.626 0 1 0 0 83.252 41.626 41.626 0 1 0 0-83.252m-71.162-71.16a41.626 41.626 0 1 0 0 83.253 41.626 41.626 0 1 0 0-83.253m0-37.7a8.162 8.162 0 1 0 0 16.324 8.162 8.162 0 1 0 0-16.324m71.162-71.161a8.162 8.162 0 1 0 0 16.324 8.162 8.162 0 1 0 0-16.324m-71.162-33.465a41.626 41.626 0 1 0 0 83.253 41.626 41.626 0 1 0 0-83.253m142.323 284.65a41.626 41.626 0 1 0 0 83.252 41.626 41.626 0 1 0 0-83.252m0-37.7a8.162 8.162 0 1 0 0 16.324 8.162 8.162 0 1 0 0-16.324m0-104.624a41.626 41.626 0 1 0 0 83.253 41.626 41.626 0 1 0 0-83.253m0-37.7a8.162 8.162 0 1 0 0 16.324 8.162 8.162 0 1 0 0-16.324m0-104.626a41.626 41.626 0 1 0 0 83.253 41.626 41.626 0 1 0 0-83.253m-71.161 71.162a41.626 41.626 0 1 0 0 83.252 41.626 41.626 0 1 0 0-83.252m-69.59 357.772a42.153 42.153 0 1 0 0 84.306 42.153 42.153 0 1 0 0-84.306m0-37.664a8.265 8.265 0 1 0 0 16.53 8.265 8.265 0 1 0 0-16.53"/><path fill="#2c106a" d="M1143.142 920.261a8.265 8.265 0 1 0 0 16.531 8.265 8.265 0 1 0 0-16.53m0 143.105a8.265 8.265 0 1 0 0 16.531 8.265 8.265 0 1 0 0-16.53m0-105.44a42.153 42.153 0 1 0 0 84.306 42.153 42.153 0 1 0 0-84.306m-71.554-71.554a42.153 42.153 0 1 0 0 84.306 42.153 42.153 0 1 0 0-84.306m0-37.664a8.265 8.265 0 1 0 0 16.53 8.265 8.265 0 1 0 0-16.53m71.554-71.555a8.265 8.265 0 1 0 0 16.531 8.265 8.265 0 1 0 0-16.53m-71.554-33.888a42.153 42.153 0 1 0 0 84.306 42.153 42.153 0 1 0 0-84.306m71.554 71.554a42.153 42.153 0 1 0 0 84.306 42.153 42.153 0 1 0 0-84.306m71.554 214.658a42.153 42.153 0 1 0 0 84.306 42.153 42.153 0 1 0 0-84.306m0-37.664a8.265 8.265 0 1 0 0 16.53 8.265 8.265 0 1 0 0-16.53m71.552-71.555a8.265 8.265 0 1 0 0 16.531 8.265 8.265 0 1 0 0-16.53m0 143.105a8.265 8.265 0 1 0 0 16.531 8.265 8.265 0 1 0 0-16.53m0-105.44a42.153 42.153 0 1 0 0 84.306 42.153 42.153 0 1 0 0-84.306m-71.552-71.554a42.153 42.153 0 1 0 0 84.306 42.153 42.153 0 1 0 0-84.306m0-37.664a8.265 8.265 0 1 0 0 16.53 8.265 8.265 0 1 0 0-16.53m71.552-71.555a8.265 8.265 0 1 0 0 16.531 8.265 8.265 0 1 0 0-16.53m-71.552-33.888a42.153 42.153 0 1 0 0 84.306 42.153 42.153 0 1 0 0-84.306m143.107 286.212a42.153 42.153 0 1 0 0 84.306 42.153 42.153 0 1 0 0-84.306m0-37.664a8.265 8.265 0 1 0 0 16.53 8.265 8.265 0 1 0 0-16.53m0-105.442a42.153 42.153 0 1 0 0 84.306 42.153 42.153 0 1 0 0-84.306m0-37.664a8.265 8.265 0 1 0 0 16.53 8.265 8.265 0 1 0 0-16.53m0-105.442a42.153 42.153 0 1 0 0 84.306 42.153 42.153 0 1 0 0-84.306m-71.555 71.554a42.153 42.153 0 1 0 0 84.306 42.153 42.153 0 1 0 0-84.306"/><g transform="translate(-617.331 -213.31)scale(2.5829)"><filter id="a" width="140%" height="140%" x="-20%" y="-20%"><feGaussianBlur in="SourceAlpha"/><feOffset result="oBlur"/><feFlood flood-color="#f75cff" flood-opacity="1"/><feComposite in2="oBlur" operator="in"/><feMerge><feMergeNode/><feMergeNode in="SourceGraphic"/></feMerge></filter><g filter="url(#a)"><rect width="560" height="101.7" x="346.167" y="321.542" fill="none" rx="0" ry="0"/><path fill="#fff" d="M427.917 400.162h-19.71v-22.32q0-4.14.31-8.5.32-4.37.68-7.34t.45-3.78h-.36l-11.43 41.94h-15.57l-11.52-41.85h-.36q.09.81.49 3.74.41 2.92.77 7.29.36 4.36.36 8.5v22.32h-18.27v-61.92h28.08l9.36 35.73h.36l9.27-35.73h27.09Zm43.47-1.44q-3.69 9.99-9.05 15.17-5.35 5.17-14.98 5.17-5.85 0-10.35-1.62v-10.71h7.2q6.75 0 8.01-6.57l-18.9-47.52h19.26l9.09 31.59h.63l8.37-31.59h17.64Zm53.64-47.17q9.63 0 14.85 6.3t5.22 18.63q0 12.24-5.22 18.5-5.22 6.25-14.85 6.25-8.28 0-13.32-5.4v22.05h-17.91v-65.25h14.58l1.53 6.75q5.22-7.83 15.12-7.83m-5.58 13.23q-3.96 0-5.94 2.79t-1.98 7.29v2.97q0 4.5 1.98 7.34 1.98 2.83 5.94 2.83 7.74 0 7.74-9.27v-4.77q0-9.18-7.74-9.18m52.84 35.37h-17.91v-65.25h17.91Zm34.91-48.59q10.89 0 17.73 3.65 6.84 3.64 6.84 11.83v18.54q0 1.53.72 2.52t2.16.99h3.24v10.35q-.27.18-1.4.59-1.12.4-3.19.81-2.07.4-4.77.4-5.22 0-8.6-1.57-3.37-1.58-4.63-4.37-3.42 2.7-7.65 4.32t-9.9 1.62q-16.74 0-16.74-13.32 0-6.93 3.73-10.57 3.74-3.65 10.76-5t18.36-1.35v-2.34q0-2.79-1.94-4.23-1.93-1.44-4.99-1.44-2.79 0-4.82.99-2.02.99-2.02 3.15v.36h-17.64q-.09-.45-.09-1.26 0-6.75 6.43-10.71 6.44-3.96 18.41-3.96m6.66 27.9q-7.65 0-11.3 1.67-3.64 1.66-3.64 4.45 0 4.5 6.12 4.5 3.51 0 6.16-1.89 2.66-1.89 2.66-4.68Zm62.55 19.26q-3.69 9.99-9.05 15.17-5.35 5.17-14.98 5.17-5.85 0-10.35-1.62v-10.71h7.2q6.75 0 8.01-6.57l-18.9-47.52h19.26l9.09 31.59h.63l8.37-31.59h17.64Zm40.87 1.43h-17.91v-65.25h17.91Zm29.96-53.1h-17.91v-12.15h17.91Zm0 53.1h-17.91v-47.52h17.91Zm34.02-48.59q9.54 0 16.15 3.74 6.62 3.73 6.62 11.56h-16.65q0-2.61-2.34-3.69-1.62-.9-4.05-.9-6.48 0-6.48 3.06 0 1.71 2.25 2.43t7.38 1.53q6.3.9 10.53 2.12 4.23 1.21 7.38 4.32 3.15 3.1 3.15 8.68 0 9.09-6.8 12.96-6.79 3.87-17.77 3.87-6.3 0-11.88-1.75-5.58-1.76-9.09-5.45t-3.51-9.36h16.65v.36q.09 3.06 2.56 4.28 2.48 1.21 5.27 1.21 7.47 0 7.47-3.51 0-1.8-2.34-2.61t-7.65-1.71q-6.39-1.08-10.49-2.34-4.09-1.26-7.15-4.27-3.06-3.02-3.06-8.42 0-8.73 6.61-12.42 6.62-3.69 17.24-3.69m53.99 1.08h10.08v12.15h-10.08v18.09q0 3.24 1.08 4.73 1.08 1.48 3.96 1.48h5.04v10.53q-2.16.72-5.58 1.17t-5.94.45q-7.92 0-12.2-2.88-4.27-2.88-4.27-9.81v-23.76h-6.66v-12.15h7.38l3.87-14.4h13.32Zm40.96-1.08q9.54 0 16.15 3.74 6.62 3.73 6.62 11.56h-16.65q0-2.61-2.34-3.69-1.62-.9-4.05-.9-6.48 0-6.48 3.06 0 1.71 2.25 2.43t7.38 1.53q6.3.9 10.53 2.12 4.23 1.21 7.38 4.32 3.15 3.1 3.15 8.68 0 9.09-6.8 12.96-6.79 3.87-17.77 3.87-6.3 0-11.88-1.75-5.58-1.76-9.09-5.45t-3.51-9.36h16.65v.36q.09 3.06 2.56 4.28 2.48 1.21 5.27 1.21 7.47 0 7.47-3.51 0-1.8-2.34-2.61t-7.65-1.71q-6.39-1.08-10.49-2.34-4.09-1.26-7.15-4.27-3.06-3.02-3.06-8.42 0-8.73 6.61-12.42 6.62-3.69 17.24-3.69"/></g></g><path fill="transparent" stroke="transparent" stroke-width="2.679" d="M250 372.321h1500v755.358H250z"/></g></svg>