<svg width="48" height="48" viewBox="0 0 48 48" fill="none" xmlns="http://www.w3.org/2000/svg">
<circle cx="24" cy="24" r="24" fill="#A855F7"/>
<path d="M31.2656 30.1406C28.1718 35.8125 28.2187 36.2812 26.7656 35.4375C25.3124 34.5938 24.7499 33.8437 27.8906 28.2187C31.0312 22.5937 31.9218 22.6406 33.3749 23.4844C34.7812 24.2812 34.3593 24.5156 31.2656 30.1406Z" fill="#454749"/>
<path d="M34.1719 31.8281C32.2031 35.4375 29.7656 37.1719 28.5937 36.5156C27.1406 35.6719 27.8906 35.6719 30.9844 30C34.0781 24.3281 33.7031 23.6719 35.1562 24.5156C36.3281 25.1719 36.1406 28.2187 34.1719 31.8281Z" fill="white"/>
<path d="M16.7343 30.1406C19.8281 35.8125 19.7812 36.2812 21.2343 35.4375C22.6874 34.5938 23.2499 33.8437 20.1093 28.2187C16.9687 22.5937 16.0781 22.6406 14.6249 23.4844C13.2187 24.2812 13.6406 24.5156 16.7343 30.1406Z" fill="#454749"/>
<path d="M13.8282 31.8281C15.797 35.4375 18.2345 37.1719 19.4063 36.5156C20.8595 35.6719 20.1095 35.6719 17.0157 30C13.922 24.3281 14.297 23.6719 12.8438 24.5156C11.672 25.1719 11.8595 28.2187 13.8282 31.8281Z" fill="white"/>
<path d="M14.2969 36.0469C14.2969 36.0469 16.8281 36.7031 17.0156 36.0469C18.1875 32.25 11.6719 30 11.6719 25.6875C11.6719 18.75 17.2031 13.125 24 13.125C30.7969 13.125 36.3281 18.75 36.3281 25.6875C36.3281 30 29.8125 32.25 30.9844 36.0469C31.1719 36.7031 33.7031 36.0469 33.7031 36.0469C36.375 33.4219 38.0625 29.7656 38.0625 25.6875C38.0625 17.7656 31.7813 11.3438 24 11.3438C16.2187 11.3438 9.9375 17.7656 9.9375 25.6875C9.9375 29.7656 11.625 33.4219 14.2969 36.0469Z" fill="white"/>
<path d="M15.9844 17.25C17.625 16.9219 19.7344 14.5781 24 14.5781C28.2656 14.5781 30.4219 16.9688 32.0156 17.25C32.6719 17.3906 33.7969 16.3594 33.7969 16.3594C31.2188 13.4063 28.1719 11.9062 24 11.9062C19.8281 11.9062 16.7812 13.4063 14.2031 16.3594C14.2031 16.4063 15.3281 17.3906 15.9844 17.25Z" fill="#454749"/>
</svg>
