<svg width="426" height="112" viewBox="0 0 426 112" fill="none" xmlns="http://www.w3.org/2000/svg">
<rect width="426" height="112" rx="12" fill="#A855F7"/>
<path d="M372.219 76.4687C361.906 95.375 362.063 96.9375 357.219 94.125C352.375 91.3125 350.5 88.8125 360.969 70.0625C371.438 51.3125 374.406 51.4687 379.25 54.2812C383.938 56.9375 382.531 57.7187 372.219 76.4687Z" fill="#454749"/>
<path d="M381.906 82.0937C375.344 94.125 367.219 99.9062 363.313 97.7187C358.469 94.9062 360.969 94.9062 371.281 76C381.594 57.0937 380.344 54.9062 385.188 57.7187C389.094 59.9062 388.469 70.0625 381.906 82.0937Z" fill="white"/>
<path d="M323.781 76.4687C334.094 95.375 333.938 96.9375 338.781 94.125C343.625 91.3125 345.5 88.8125 335.031 70.0625C324.563 51.3125 321.594 51.4687 316.75 54.2812C312.062 56.9375 313.469 57.7187 323.781 76.4687Z" fill="#454749"/>
<path d="M314.094 82.0937C320.656 94.125 328.781 99.9062 332.688 97.7187C337.531 94.9062 335.031 94.9062 324.719 76C314.406 57.0937 315.656 54.9062 310.812 57.7187C306.906 59.9062 307.531 70.0625 314.094 82.0937Z" fill="white"/>
<path d="M315.656 96.1563C315.656 96.1563 324.094 98.3438 324.719 96.1563C328.625 83.5 306.906 76 306.906 61.625C306.906 38.5 325.344 19.75 348 19.75C370.656 19.75 389.094 38.5 389.094 61.625C389.094 76 367.375 83.5 371.281 96.1563C371.906 98.3438 380.344 96.1563 380.344 96.1563C389.25 87.4063 394.875 75.2187 394.875 61.625C394.875 35.2187 373.938 13.8125 348 13.8125C322.062 13.8125 301.125 35.2187 301.125 61.625C301.125 75.2187 306.75 87.4063 315.656 96.1563Z" fill="white"/>
<path d="M321.281 33.5C326.75 32.4063 333.781 24.5938 348 24.5938C362.219 24.5938 369.406 32.5625 374.719 33.5C376.906 33.9688 380.656 30.5313 380.656 30.5313C372.063 20.6875 361.906 15.6875 348 15.6875C334.094 15.6875 323.938 20.6875 315.344 30.5313C315.344 30.6875 319.094 33.9688 321.281 33.5Z" fill="#454749"/>
<path d="M29.332 50V49.64L32.068 49.208V25.34L29.512 24.872V24.512H37.18L46.576 45.392L46.072 44.78H47.188L46.792 45.392L53.74 24.512H61.3V24.872L59.176 25.304V49.208L61.3 49.64V50H51.58V49.64L53.92 49.208V28.4H53.38L46.072 50H42.868L33.184 28.94H32.608V36.608C32.608 37.544 32.668 38.564 32.788 39.668C32.932 40.748 33.136 41.84 33.4 42.944C33.688 44.024 34.072 45.032 34.552 45.968C35.032 46.904 35.62 47.696 36.316 48.344C37.012 48.992 37.828 49.424 38.764 49.64V50H29.332ZM67.8599 57.74C66.9479 57.74 66.1679 57.584 65.5199 57.272C64.8959 56.984 64.4159 56.576 64.0799 56.048C63.7679 55.544 63.6119 54.98 63.6119 54.356C63.6119 53.948 63.6959 53.588 63.8639 53.276C64.0559 52.988 64.2959 52.736 64.5839 52.52C64.8959 52.328 65.2319 52.184 65.5919 52.088C65.9759 51.992 66.3599 51.944 66.7439 51.944C67.1999 51.944 67.6319 52.016 68.0399 52.16C68.4479 52.328 68.7839 52.556 69.0479 52.844C69.3119 53.156 69.4439 53.552 69.4439 54.032C69.4439 54.368 69.3959 54.68 69.2999 54.968C69.2279 55.256 69.1199 55.52 68.9759 55.76C68.8319 56 68.7119 56.192 68.6159 56.336C68.5439 56.504 68.5079 56.636 68.5079 56.732C68.5079 56.9 68.7239 56.984 69.1559 56.984C69.5879 56.984 70.0319 56.804 70.4879 56.444C70.9439 56.084 71.3759 55.556 71.7839 54.86C72.0959 54.38 72.4319 53.708 72.7919 52.844C73.1519 52.004 73.4999 51.056 73.8359 50H71.3159L64.2599 32.72L62.1359 32.396V32H71.8199V32.396L69.7319 32.72L74.9879 45.896H75.4559L77.7959 39.308C77.9159 38.924 77.9999 38.516 78.0479 38.084C78.1199 37.652 78.1559 37.22 78.1559 36.788C78.1559 36.308 78.1079 35.816 78.0119 35.312C77.9399 34.784 77.7719 34.304 77.5079 33.872C77.2679 33.416 76.9319 33.056 76.4999 32.792C76.0679 32.504 75.5159 32.36 74.8439 32.36V32H83.0159V32.36L80.7839 32.72L74.3759 50C73.8719 51.368 73.4279 52.496 73.0439 53.384C72.6599 54.272 72.3359 54.908 72.0719 55.292C71.6159 56.036 71.0519 56.624 70.3799 57.056C69.7079 57.512 68.8679 57.74 67.8599 57.74ZM97.7067 24.512C99.7947 24.512 101.547 24.776 102.963 25.304C104.379 25.808 105.435 26.564 106.131 27.572C106.851 28.556 107.211 29.78 107.211 31.244C107.211 33.644 106.251 35.492 104.331 36.788C102.411 38.084 99.6987 38.732 96.1947 38.732C95.4027 38.732 94.6347 38.708 93.8907 38.66C93.1467 38.612 92.4747 38.552 91.8747 38.48V37.688C92.6907 38 93.8427 38.156 95.3307 38.156C97.3947 38.156 99.0027 37.58 100.155 36.428C101.307 35.252 101.883 33.596 101.883 31.46C101.883 30.068 101.655 28.904 101.199 27.968C100.743 27.008 100.071 26.288 99.1827 25.808C98.3187 25.328 97.2507 25.088 95.9787 25.088C95.4987 25.088 94.9947 25.1 94.4667 25.124C93.9387 25.124 93.4587 25.148 93.0267 25.196C92.6187 25.22 92.3067 25.256 92.0907 25.304V49.208L94.1787 49.64V50H84.7107V49.64L86.7987 49.208V25.304L84.7107 24.872V24.512H97.7067ZM116.753 49.28L118.697 49.64V50H109.769V49.64L111.713 49.28V24.872H109.589V24.476L116.753 23.18V49.28ZM131.172 31.46C132.612 31.46 133.848 31.616 134.88 31.928C135.936 32.24 136.8 32.72 137.472 33.368C138.144 34.016 138.636 34.832 138.948 35.816C139.26 36.8 139.416 37.952 139.416 39.272V48.776C139.416 49.064 139.476 49.292 139.596 49.46C139.74 49.628 139.932 49.712 140.172 49.712C140.412 49.712 140.7 49.64 141.036 49.496C141.396 49.352 141.756 49.16 142.116 48.92V49.28C141.804 49.52 141.432 49.736 141 49.928C140.592 50.12 140.148 50.264 139.668 50.36C139.212 50.48 138.756 50.54 138.3 50.54C137.1 50.54 136.14 50.228 135.42 49.604C134.724 48.956 134.376 47.912 134.376 46.472C134.376 46.088 134.376 45.812 134.376 45.644C134.376 45.452 134.376 45.308 134.376 45.212C134.376 45.092 134.376 44.96 134.376 44.816L134.088 44.6C133.632 45.536 133.092 46.376 132.468 47.12C131.868 47.84 131.196 48.464 130.452 48.992C129.708 49.496 128.94 49.88 128.148 50.144C127.356 50.408 126.564 50.54 125.772 50.54C124.884 50.54 124.08 50.384 123.36 50.072C122.64 49.76 122.064 49.304 121.632 48.704C121.2 48.104 120.984 47.372 120.984 46.508C120.984 44.492 122.124 42.944 124.404 41.864C126.708 40.76 130.032 40.208 134.376 40.208C134.376 38.168 134.232 36.56 133.944 35.384C133.656 34.208 133.152 33.368 132.432 32.864C131.736 32.36 130.728 32.108 129.408 32.108C128.616 32.108 127.908 32.192 127.284 32.36C126.66 32.504 126.168 32.672 125.808 32.864C125.448 33.056 125.268 33.236 125.268 33.404C125.268 33.524 125.4 33.656 125.664 33.8C125.928 33.944 126.384 34.136 127.032 34.376C128.304 34.832 128.939 35.516 128.939 36.428C128.939 37.196 128.592 37.796 127.896 38.228C127.2 38.636 126.348 38.84 125.34 38.84C124.356 38.84 123.516 38.636 122.82 38.228C122.148 37.796 121.812 37.172 121.812 36.356C121.812 35.756 122.064 35.168 122.568 34.592C123.072 34.016 123.756 33.488 124.62 33.008C125.508 32.528 126.516 32.156 127.644 31.892C128.772 31.604 129.948 31.46 131.172 31.46ZM134.376 40.64C132.36 40.64 130.704 40.904 129.408 41.432C128.112 41.96 127.152 42.644 126.528 43.484C125.904 44.3 125.592 45.188 125.592 46.148C125.592 46.724 125.7 47.204 125.916 47.588C126.132 47.948 126.42 48.224 126.78 48.416C127.14 48.584 127.56 48.668 128.04 48.668C128.568 48.668 129.12 48.56 129.696 48.344C130.296 48.128 130.884 47.792 131.46 47.336C132.036 46.88 132.576 46.304 133.08 45.608C133.608 44.912 134.04 44.072 134.376 43.088V40.64ZM146.645 57.74C145.733 57.74 144.953 57.584 144.305 57.272C143.681 56.984 143.201 56.576 142.865 56.048C142.553 55.544 142.397 54.98 142.397 54.356C142.397 53.948 142.481 53.588 142.649 53.276C142.841 52.988 143.081 52.736 143.369 52.52C143.681 52.328 144.017 52.184 144.377 52.088C144.761 51.992 145.145 51.944 145.529 51.944C145.985 51.944 146.417 52.016 146.825 52.16C147.233 52.328 147.569 52.556 147.833 52.844C148.097 53.156 148.229 53.552 148.229 54.032C148.229 54.368 148.181 54.68 148.085 54.968C148.013 55.256 147.905 55.52 147.761 55.76C147.617 56 147.497 56.192 147.401 56.336C147.329 56.504 147.293 56.636 147.293 56.732C147.293 56.9 147.509 56.984 147.941 56.984C148.373 56.984 148.817 56.804 149.273 56.444C149.729 56.084 150.161 55.556 150.569 54.86C150.881 54.38 151.217 53.708 151.577 52.844C151.937 52.004 152.285 51.056 152.621 50H150.101L143.045 32.72L140.921 32.396V32H150.605V32.396L148.517 32.72L153.773 45.896H154.241L156.581 39.308C156.701 38.924 156.785 38.516 156.833 38.084C156.905 37.652 156.941 37.22 156.941 36.788C156.941 36.308 156.893 35.816 156.797 35.312C156.725 34.784 156.557 34.304 156.293 33.872C156.053 33.416 155.717 33.056 155.285 32.792C154.853 32.504 154.301 32.36 153.629 32.36V32H161.801V32.36L159.569 32.72L153.161 50C152.657 51.368 152.213 52.496 151.829 53.384C151.445 54.272 151.121 54.908 150.857 55.292C150.401 56.036 149.837 56.624 149.165 57.056C148.493 57.512 147.653 57.74 146.645 57.74ZM170.753 49.28L172.697 49.64V50H163.769V49.64L165.713 49.28V24.872H163.589V24.476L170.753 23.18V49.28ZM179.268 28.76C178.572 28.76 177.948 28.664 177.396 28.472C176.868 28.256 176.448 27.968 176.136 27.608C175.824 27.224 175.668 26.792 175.668 26.312C175.668 25.832 175.824 25.412 176.136 25.052C176.448 24.668 176.868 24.38 177.396 24.188C177.948 23.972 178.572 23.864 179.268 23.864C179.988 23.864 180.612 23.972 181.14 24.188C181.692 24.38 182.124 24.668 182.436 25.052C182.748 25.412 182.904 25.832 182.904 26.312C182.904 26.792 182.748 27.224 182.436 27.608C182.124 27.968 181.692 28.256 181.14 28.472C180.612 28.664 179.988 28.76 179.268 28.76ZM174.984 50V49.64L176.928 49.28V33.152H174.804V32.756L181.968 31.46V49.28L183.912 49.64V50H174.984ZM194.723 50.54C193.619 50.54 192.575 50.432 191.591 50.216C190.607 50.024 189.731 49.748 188.963 49.388C188.219 49.004 187.631 48.548 187.199 48.02C186.767 47.468 186.551 46.844 186.551 46.148C186.551 45.62 186.707 45.188 187.019 44.852C187.331 44.516 187.727 44.264 188.207 44.096C188.711 43.904 189.215 43.808 189.719 43.808C190.271 43.808 190.775 43.892 191.231 44.06C191.711 44.228 192.095 44.468 192.383 44.78C192.671 45.092 192.815 45.488 192.815 45.968C192.815 46.304 192.743 46.616 192.599 46.904C192.455 47.168 192.227 47.432 191.915 47.696C191.531 47.984 191.267 48.224 191.123 48.416C191.003 48.584 190.943 48.776 190.943 48.992C190.943 49.16 191.087 49.34 191.375 49.532C191.663 49.7 192.071 49.844 192.599 49.964C193.127 50.084 193.751 50.144 194.471 50.144C195.455 50.144 196.331 50.024 197.099 49.784C197.867 49.544 198.467 49.184 198.899 48.704C199.355 48.2 199.583 47.564 199.583 46.796C199.583 46.172 199.391 45.608 199.007 45.104C198.647 44.6 198.035 44.12 197.171 43.664C196.307 43.208 195.119 42.728 193.607 42.224C191.903 41.624 190.547 41.024 189.539 40.424C188.555 39.824 187.847 39.2 187.415 38.552C187.007 37.88 186.803 37.16 186.803 36.392C186.803 34.88 187.547 33.68 189.035 32.792C190.547 31.904 192.599 31.46 195.191 31.46C196.583 31.46 197.867 31.64 199.043 32C200.219 32.36 201.167 32.864 201.887 33.512C202.607 34.136 202.967 34.892 202.967 35.78C202.967 36.26 202.823 36.668 202.535 37.004C202.247 37.316 201.863 37.556 201.383 37.724C200.927 37.892 200.447 37.976 199.943 37.976C199.559 37.976 199.175 37.928 198.791 37.832C198.407 37.736 198.059 37.604 197.747 37.436C197.435 37.244 197.183 37.016 196.991 36.752C196.799 36.464 196.703 36.152 196.703 35.816C196.703 35.12 197.063 34.52 197.783 34.016C198.167 33.728 198.431 33.5 198.575 33.332C198.719 33.164 198.791 32.996 198.791 32.828C198.791 32.708 198.707 32.588 198.539 32.468C198.395 32.348 198.167 32.252 197.855 32.18C197.567 32.084 197.219 32.012 196.811 31.964C196.403 31.892 195.959 31.856 195.479 31.856C194.495 31.856 193.607 31.964 192.815 32.18C192.023 32.396 191.387 32.72 190.907 33.152C190.451 33.56 190.223 34.088 190.223 34.736C190.223 35.36 190.463 35.936 190.943 36.464C191.423 36.968 192.095 37.448 192.959 37.904C193.847 38.36 194.903 38.804 196.127 39.236C197.927 39.908 199.343 40.532 200.375 41.108C201.431 41.66 202.187 42.236 202.643 42.836C203.099 43.436 203.327 44.108 203.327 44.852C203.327 45.812 203.087 46.64 202.607 47.336C202.151 48.032 201.527 48.62 200.735 49.1C199.943 49.58 199.031 49.94 197.999 50.18C196.967 50.42 195.875 50.54 194.723 50.54ZM211.822 50.54C210.31 50.54 209.23 50.108 208.582 49.244C207.934 48.38 207.61 47.084 207.61 45.356V32.72H205.162V32.36L207.646 32L212.11 26.096H212.65V31.676L216.358 32.36V32.72H212.65V47.012C212.65 47.852 212.77 48.464 213.01 48.848C213.274 49.208 213.622 49.388 214.054 49.388C214.438 49.388 214.81 49.268 215.17 49.028C215.53 48.764 215.89 48.44 216.25 48.056L216.358 48.56C216.094 48.8 215.782 49.04 215.422 49.28C215.086 49.52 214.726 49.736 214.342 49.928C213.958 50.12 213.55 50.264 213.118 50.36C212.71 50.48 212.278 50.54 211.822 50.54ZM226.82 50.54C225.716 50.54 224.672 50.432 223.688 50.216C222.704 50.024 221.828 49.748 221.06 49.388C220.316 49.004 219.728 48.548 219.296 48.02C218.864 47.468 218.648 46.844 218.648 46.148C218.648 45.62 218.804 45.188 219.116 44.852C219.428 44.516 219.824 44.264 220.304 44.096C220.808 43.904 221.312 43.808 221.816 43.808C222.368 43.808 222.872 43.892 223.328 44.06C223.808 44.228 224.192 44.468 224.48 44.78C224.768 45.092 224.912 45.488 224.912 45.968C224.912 46.304 224.84 46.616 224.696 46.904C224.552 47.168 224.324 47.432 224.012 47.696C223.628 47.984 223.364 48.224 223.22 48.416C223.1 48.584 223.04 48.776 223.04 48.992C223.04 49.16 223.184 49.34 223.472 49.532C223.76 49.7 224.168 49.844 224.696 49.964C225.224 50.084 225.848 50.144 226.568 50.144C227.552 50.144 228.428 50.024 229.196 49.784C229.964 49.544 230.564 49.184 230.996 48.704C231.452 48.2 231.68 47.564 231.68 46.796C231.68 46.172 231.488 45.608 231.104 45.104C230.744 44.6 230.132 44.12 229.268 43.664C228.404 43.208 227.216 42.728 225.704 42.224C224 41.624 222.644 41.024 221.636 40.424C220.652 39.824 219.944 39.2 219.512 38.552C219.104 37.88 218.9 37.16 218.9 36.392C218.9 34.88 219.644 33.68 221.132 32.792C222.644 31.904 224.696 31.46 227.288 31.46C228.68 31.46 229.964 31.64 231.14 32C232.316 32.36 233.264 32.864 233.984 33.512C234.704 34.136 235.064 34.892 235.064 35.78C235.064 36.26 234.92 36.668 234.632 37.004C234.344 37.316 233.96 37.556 233.48 37.724C233.024 37.892 232.544 37.976 232.04 37.976C231.656 37.976 231.272 37.928 230.888 37.832C230.504 37.736 230.156 37.604 229.844 37.436C229.532 37.244 229.28 37.016 229.088 36.752C228.896 36.464 228.8 36.152 228.8 35.816C228.8 35.12 229.16 34.52 229.88 34.016C230.264 33.728 230.528 33.5 230.672 33.332C230.816 33.164 230.888 32.996 230.888 32.828C230.888 32.708 230.804 32.588 230.636 32.468C230.492 32.348 230.264 32.252 229.952 32.18C229.664 32.084 229.316 32.012 228.908 31.964C228.5 31.892 228.056 31.856 227.576 31.856C226.592 31.856 225.704 31.964 224.912 32.18C224.12 32.396 223.484 32.72 223.004 33.152C222.548 33.56 222.32 34.088 222.32 34.736C222.32 35.36 222.56 35.936 223.04 36.464C223.52 36.968 224.192 37.448 225.056 37.904C225.944 38.36 227 38.804 228.224 39.236C230.024 39.908 231.44 40.532 232.472 41.108C233.528 41.66 234.284 42.236 234.74 42.836C235.196 43.436 235.424 44.108 235.424 44.852C235.424 45.812 235.184 46.64 234.704 47.336C234.248 48.032 233.624 48.62 232.832 49.1C232.04 49.58 231.128 49.94 230.096 50.18C229.064 50.42 227.972 50.54 226.82 50.54Z" fill="white"/>
<path d="M35.528 81.44C35.1227 81.44 34.776 81.3707 34.488 81.232C34.2107 81.104 33.9973 80.9227 33.848 80.688C33.7093 80.464 33.64 80.2133 33.64 79.936C33.64 79.7547 33.6773 79.5947 33.752 79.456C33.8373 79.328 33.944 79.216 34.072 79.12C34.2107 79.0347 34.36 78.9707 34.52 78.928C34.6907 78.8853 34.8613 78.864 35.032 78.864C35.2347 78.864 35.4267 78.896 35.608 78.96C35.7893 79.0347 35.9387 79.136 36.056 79.264C36.1733 79.4027 36.232 79.5787 36.232 79.792C36.232 79.9413 36.2107 80.08 36.168 80.208C36.136 80.336 36.088 80.4533 36.024 80.56C35.96 80.6667 35.9067 80.752 35.864 80.816C35.832 80.8907 35.816 80.9493 35.816 80.992C35.816 81.0667 35.912 81.104 36.104 81.104C36.296 81.104 36.4933 81.024 36.696 80.864C36.8987 80.704 37.0907 80.4693 37.272 80.16C37.4107 79.9467 37.56 79.648 37.72 79.264C37.88 78.8907 38.0347 78.4693 38.184 78H37.064L33.928 70.32L32.984 70.176V70H37.288V70.176L36.36 70.32L38.696 76.176H38.904L39.944 73.248C39.9973 73.0773 40.0347 72.896 40.056 72.704C40.088 72.512 40.104 72.32 40.104 72.128C40.104 71.9147 40.0827 71.696 40.04 71.472C40.008 71.2373 39.9333 71.024 39.816 70.832C39.7093 70.6293 39.56 70.4693 39.368 70.352C39.176 70.224 38.9307 70.16 38.632 70.16V70H42.264V70.16L41.272 70.32L38.424 78C38.2 78.608 38.0027 79.1093 37.832 79.504C37.6613 79.8987 37.5173 80.1813 37.4 80.352C37.1973 80.6827 36.9467 80.944 36.648 81.136C36.3493 81.3387 35.976 81.44 35.528 81.44ZM46.9745 69.76C47.6678 69.76 48.2812 69.8613 48.8145 70.064C49.3478 70.2667 49.7958 70.56 50.1585 70.944C50.5212 71.328 50.7932 71.7867 50.9745 72.32C51.1665 72.8427 51.2625 73.424 51.2625 74.064C51.2625 74.6507 51.1665 75.2 50.9745 75.712C50.7932 76.2133 50.5212 76.656 50.1585 77.04C49.7958 77.4133 49.3478 77.7067 48.8145 77.92C48.2918 78.1333 47.6785 78.24 46.9745 78.24C46.2705 78.24 45.6465 78.1333 45.1025 77.92C44.5692 77.7067 44.1212 77.4133 43.7585 77.04C43.4065 76.656 43.1398 76.2133 42.9585 75.712C42.7772 75.2 42.6865 74.6507 42.6865 74.064C42.6865 73.424 42.7825 72.8427 42.9745 72.32C43.1772 71.7867 43.4598 71.328 43.8225 70.944C44.1958 70.56 44.6492 70.2667 45.1825 70.064C45.7158 69.8613 46.3132 69.76 46.9745 69.76ZM46.9905 69.952C46.5318 69.952 46.1532 70.1333 45.8545 70.496C45.5558 70.8587 45.3318 71.3493 45.1825 71.968C45.0438 72.5867 44.9745 73.2853 44.9745 74.064C44.9745 74.608 45.0118 75.1253 45.0865 75.616C45.1612 76.096 45.2785 76.5173 45.4385 76.88C45.6092 77.2427 45.8225 77.5307 46.0785 77.744C46.3345 77.9467 46.6332 78.048 46.9745 78.048C47.3158 78.048 47.6092 77.9467 47.8545 77.744C48.1105 77.5413 48.3238 77.2587 48.4945 76.896C48.6652 76.5227 48.7878 76.096 48.8625 75.616C48.9372 75.136 48.9745 74.6187 48.9745 74.064C48.9745 73.488 48.9372 72.9493 48.8625 72.448C48.7878 71.9467 48.6705 71.5093 48.5105 71.136C48.3505 70.7627 48.1425 70.4747 47.8865 70.272C47.6412 70.0587 47.3425 69.952 46.9905 69.952ZM55.3493 78.224C54.5706 78.224 53.9839 77.9947 53.5893 77.536C53.2053 77.0667 53.0133 76.3627 53.0133 75.424V70.496H52.0693V70.336L55.2533 69.76V75.744C55.2533 76.2987 55.3493 76.72 55.5413 77.008C55.7333 77.296 56.0053 77.44 56.3573 77.44C56.6666 77.44 56.9759 77.3227 57.2853 77.088C57.6053 76.8427 57.9039 76.5173 58.1813 76.112C58.4586 75.696 58.6879 75.2267 58.8693 74.704V70.496H57.9413V70.336L61.1093 69.76V77.488H62.0533V77.664L58.8693 78.24V75.616L58.7413 75.488C58.3146 76.4053 57.8133 77.0933 57.2373 77.552C56.6719 78 56.0426 78.224 55.3493 78.224ZM63.0139 78V77.84L63.8779 77.632V70.512H62.9499V70.336L66.1179 69.76V72.272L66.2459 72.4C66.3952 72.048 66.5392 71.7333 66.6779 71.456C66.8272 71.168 66.9765 70.9333 67.1259 70.752C67.3819 70.4107 67.6592 70.16 67.9579 70C68.2672 69.84 68.6085 69.76 68.9819 69.76C69.2379 69.76 69.4832 69.8133 69.7179 69.92C69.9525 70.016 70.1445 70.1707 70.2939 70.384C70.4432 70.5867 70.5179 70.848 70.5179 71.168C70.5179 71.4133 70.4539 71.6373 70.3259 71.84C70.1979 72.0427 70.0219 72.2027 69.7979 72.32C69.5739 72.4373 69.3019 72.496 68.9819 72.496C68.7045 72.496 68.4539 72.448 68.2299 72.352C68.0059 72.2453 67.8299 72.1067 67.7019 71.936C67.5845 71.7547 67.5259 71.552 67.5259 71.328C67.5259 71.2427 67.5312 71.168 67.5419 71.104C67.5632 71.0293 67.5792 70.96 67.5899 70.896C67.6112 70.832 67.6219 70.7733 67.6219 70.72C67.6219 70.6453 67.5952 70.608 67.5419 70.608C67.4459 70.608 67.3285 70.6987 67.1899 70.88C67.0619 71.0613 66.9072 71.3387 66.7259 71.712C66.6299 71.9253 66.5285 72.1707 66.4219 72.448C66.3152 72.7253 66.2139 73.0187 66.1179 73.328V77.632L66.9979 77.84V78H63.0139ZM76.9514 78V77.84L77.8154 77.632V70.64H76.8874V70.464L80.0554 69.904V72.384L80.1834 72.496C80.418 71.9733 80.6954 71.5093 81.0154 71.104C81.3354 70.688 81.698 70.3627 82.1034 70.128C82.5087 69.8827 82.9567 69.76 83.4474 69.76C83.842 69.76 84.1834 69.8187 84.4714 69.936C84.77 70.0533 85.0154 70.2293 85.2074 70.464C85.3994 70.688 85.5434 70.9707 85.6394 71.312C85.7354 71.6427 85.7834 72.0267 85.7834 72.464V77.632L86.6314 77.84V78H82.6954V77.84L83.5434 77.632V72.256C83.5434 71.6907 83.4474 71.264 83.2554 70.976C83.0634 70.688 82.7914 70.544 82.4394 70.544C82.194 70.544 81.954 70.64 81.7194 70.832C81.4954 71.0133 81.2767 71.248 81.0634 71.536C80.85 71.824 80.658 72.1227 80.4874 72.432C80.3167 72.7413 80.1727 73.0293 80.0554 73.296V77.632L80.9034 77.84V78H76.9514ZM88.4234 78V77.84L89.2714 77.632V72.256C89.2714 71.6907 89.1754 71.264 88.9834 70.976C88.7914 70.688 88.514 70.544 88.1514 70.544C87.9167 70.544 87.682 70.64 87.4474 70.832C87.2127 71.0133 86.9887 71.248 86.7754 71.536C86.562 71.824 86.37 72.1227 86.1994 72.432C86.0287 72.7413 85.89 73.0293 85.7834 73.296V72.384L85.9114 72.496C86.1354 71.9733 86.4074 71.5093 86.7274 71.104C87.0474 70.688 87.41 70.3627 87.8154 70.128C88.2314 69.8827 88.6847 69.76 89.1754 69.76C89.6127 69.76 89.9807 69.8293 90.2794 69.968C90.578 70.096 90.8127 70.288 90.9834 70.544C91.1647 70.7893 91.298 71.088 91.3834 71.44C91.4687 71.7813 91.5114 72.16 91.5114 72.576V77.632L92.4394 77.84V78H88.4234ZM96.3805 78.224C95.6018 78.224 95.0152 77.9947 94.6205 77.536C94.2365 77.0667 94.0445 76.3627 94.0445 75.424V70.496H93.1005V70.336L96.2845 69.76V75.744C96.2845 76.2987 96.3805 76.72 96.5725 77.008C96.7645 77.296 97.0365 77.44 97.3885 77.44C97.6978 77.44 98.0072 77.3227 98.3165 77.088C98.6365 76.8427 98.9352 76.5173 99.2125 76.112C99.4898 75.696 99.7192 75.2267 99.9005 74.704V70.496H98.9725V70.336L102.141 69.76V77.488H103.085V77.664L99.9005 78.24V75.616L99.7725 75.488C99.3458 76.4053 98.8445 77.0933 98.2685 77.552C97.7032 78 97.0738 78.224 96.3805 78.224ZM107.677 78.24C107.186 78.24 106.722 78.192 106.285 78.096C105.848 78.0107 105.458 77.888 105.117 77.728C104.786 77.5573 104.525 77.3547 104.333 77.12C104.141 76.8747 104.045 76.5973 104.045 76.288C104.045 76.0533 104.114 75.8613 104.253 75.712C104.392 75.5627 104.568 75.4507 104.781 75.376C105.005 75.2907 105.229 75.248 105.453 75.248C105.698 75.248 105.922 75.2853 106.125 75.36C106.338 75.4347 106.509 75.5413 106.637 75.68C106.765 75.8187 106.829 75.9947 106.829 76.208C106.829 76.3573 106.797 76.496 106.733 76.624C106.669 76.7413 106.568 76.8587 106.429 76.976C106.258 77.104 106.141 77.2107 106.077 77.296C106.024 77.3707 105.997 77.456 105.997 77.552C105.997 77.6267 106.061 77.7067 106.189 77.792C106.317 77.8667 106.498 77.9307 106.733 77.984C106.968 78.0373 107.245 78.064 107.565 78.064C108.002 78.064 108.392 78.0107 108.733 77.904C109.074 77.7973 109.341 77.6373 109.533 77.424C109.736 77.2 109.837 76.9173 109.837 76.576C109.837 76.2987 109.752 76.048 109.581 75.824C109.421 75.6 109.149 75.3867 108.765 75.184C108.381 74.9813 107.853 74.768 107.181 74.544C106.424 74.2773 105.821 74.0107 105.373 73.744C104.936 73.4773 104.621 73.2 104.429 72.912C104.248 72.6133 104.157 72.2933 104.157 71.952C104.157 71.28 104.488 70.7467 105.149 70.352C105.821 69.9573 106.733 69.76 107.885 69.76C108.504 69.76 109.074 69.84 109.597 70C110.12 70.16 110.541 70.384 110.861 70.672C111.181 70.9493 111.341 71.2853 111.341 71.68C111.341 71.8933 111.277 72.0747 111.149 72.224C111.021 72.3627 110.85 72.4693 110.637 72.544C110.434 72.6187 110.221 72.656 109.997 72.656C109.826 72.656 109.656 72.6347 109.485 72.592C109.314 72.5493 109.16 72.4907 109.021 72.416C108.882 72.3307 108.77 72.2293 108.685 72.112C108.6 71.984 108.557 71.8453 108.557 71.696C108.557 71.3867 108.717 71.12 109.037 70.896C109.208 70.768 109.325 70.6667 109.389 70.592C109.453 70.5173 109.485 70.4427 109.485 70.368C109.485 70.3147 109.448 70.2613 109.373 70.208C109.309 70.1547 109.208 70.112 109.069 70.08C108.941 70.0373 108.786 70.0053 108.605 69.984C108.424 69.952 108.226 69.936 108.013 69.936C107.576 69.936 107.181 69.984 106.829 70.08C106.477 70.176 106.194 70.32 105.981 70.512C105.778 70.6933 105.677 70.928 105.677 71.216C105.677 71.4933 105.784 71.7493 105.997 71.984C106.21 72.208 106.509 72.4213 106.893 72.624C107.288 72.8267 107.757 73.024 108.301 73.216C109.101 73.5147 109.73 73.792 110.189 74.048C110.658 74.2933 110.994 74.5493 111.197 74.816C111.4 75.0827 111.501 75.3813 111.501 75.712C111.501 76.1387 111.394 76.5067 111.181 76.816C110.978 77.1253 110.701 77.3867 110.349 77.6C109.997 77.8133 109.592 77.9733 109.133 78.08C108.674 78.1867 108.189 78.24 107.677 78.24ZM114.621 68.56C114.311 68.56 114.034 68.5173 113.789 68.432C113.554 68.336 113.367 68.208 113.229 68.048C113.09 67.8773 113.021 67.6853 113.021 67.472C113.021 67.2587 113.09 67.072 113.229 66.912C113.367 66.7413 113.554 66.6133 113.789 66.528C114.034 66.432 114.311 66.384 114.621 66.384C114.941 66.384 115.218 66.432 115.453 66.528C115.698 66.6133 115.89 66.7413 116.029 66.912C116.167 67.072 116.237 67.2587 116.237 67.472C116.237 67.6853 116.167 67.8773 116.029 68.048C115.89 68.208 115.698 68.336 115.453 68.432C115.218 68.5173 114.941 68.56 114.621 68.56ZM112.717 78V77.84L113.581 77.68V70.512H112.637V70.336L115.821 69.76V77.68L116.685 77.84V78H112.717ZM121.815 78.24C121.015 78.24 120.3 78.064 119.671 77.712C119.052 77.36 118.567 76.8747 118.215 76.256C117.863 75.6267 117.687 74.912 117.687 74.112C117.687 73.44 117.799 72.8373 118.023 72.304C118.247 71.7707 118.567 71.3173 118.983 70.944C119.399 70.56 119.9 70.2667 120.487 70.064C121.073 69.8613 121.729 69.76 122.455 69.76C122.881 69.76 123.292 69.808 123.687 69.904C124.092 69.9893 124.455 70.1227 124.775 70.304C125.095 70.4747 125.345 70.6933 125.527 70.96C125.719 71.216 125.815 71.5147 125.815 71.856C125.815 72.0907 125.745 72.2933 125.607 72.464C125.468 72.624 125.281 72.7467 125.047 72.832C124.812 72.9067 124.545 72.944 124.247 72.944C123.799 72.944 123.42 72.8533 123.111 72.672C122.801 72.4907 122.647 72.224 122.647 71.872C122.647 71.6373 122.727 71.4293 122.887 71.248C123.047 71.0667 123.271 70.9387 123.559 70.864C124.039 70.7253 124.279 70.5973 124.279 70.48C124.279 70.4053 124.215 70.3253 124.087 70.24C123.959 70.1547 123.777 70.0853 123.543 70.032C123.319 69.9787 123.052 69.952 122.743 69.952C122.316 69.952 121.932 70.0533 121.591 70.256C121.249 70.448 120.956 70.72 120.711 71.072C120.465 71.4133 120.273 71.808 120.135 72.256C120.007 72.704 119.943 73.184 119.943 73.696C119.943 74.2827 120.012 74.8107 120.151 75.28C120.289 75.7493 120.487 76.1547 120.743 76.496C120.999 76.8267 121.308 77.0827 121.671 77.264C122.044 77.4347 122.455 77.52 122.903 77.52C123.297 77.52 123.681 77.4507 124.055 77.312C124.428 77.1627 124.769 76.9493 125.079 76.672C125.388 76.384 125.639 76.0373 125.831 75.632L126.007 75.792C125.74 76.304 125.447 76.72 125.127 77.04C124.807 77.36 124.465 77.6107 124.103 77.792C123.74 77.9627 123.367 78.08 122.983 78.144C122.599 78.208 122.209 78.24 121.815 78.24ZM132.951 81.2V81.04L133.815 80.848V70.576H132.871V70.4L136.055 69.76V72.304L136.183 72.432C136.3 72.1333 136.444 71.8293 136.615 71.52C136.796 71.2 137.01 70.912 137.255 70.656C137.5 70.3893 137.783 70.176 138.103 70.016C138.423 69.8453 138.78 69.76 139.175 69.76C139.826 69.76 140.391 69.936 140.871 70.288C141.351 70.64 141.724 71.12 141.991 71.728C142.258 72.336 142.391 73.0293 142.391 73.808C142.391 74.8 142.231 75.6267 141.911 76.288C141.602 76.9387 141.175 77.4293 140.631 77.76C140.098 78.08 139.506 78.24 138.855 78.24C138.354 78.24 137.906 78.1547 137.511 77.984C137.127 77.8133 136.812 77.6053 136.567 77.36C136.332 77.1147 136.162 76.8747 136.055 76.64V80.832L136.999 81.04V81.2H132.951ZM137.975 77.696C138.412 77.696 138.786 77.5413 139.095 77.232C139.415 76.912 139.66 76.48 139.831 75.936C140.012 75.392 140.103 74.7733 140.103 74.08C140.103 73.2907 140.028 72.6347 139.879 72.112C139.74 71.5893 139.538 71.2 139.271 70.944C139.015 70.6773 138.706 70.544 138.343 70.544C138.066 70.544 137.815 70.6133 137.591 70.752C137.367 70.8907 137.159 71.0933 136.967 71.36C136.786 71.616 136.62 71.92 136.471 72.272C136.322 72.6133 136.183 72.9973 136.055 73.424V75.248C136.055 75.5467 136.098 75.84 136.183 76.128C136.279 76.416 136.407 76.6827 136.567 76.928C136.738 77.1627 136.94 77.3493 137.175 77.488C137.41 77.6267 137.676 77.696 137.975 77.696ZM146.571 77.68L147.435 77.84V78H143.467V77.84L144.331 77.68V66.832H143.387V66.656L146.571 66.08V77.68ZM152.979 69.76C153.619 69.76 154.168 69.8293 154.627 69.968C155.096 70.1067 155.48 70.32 155.779 70.608C156.078 70.896 156.296 71.2587 156.435 71.696C156.574 72.1333 156.643 72.6453 156.643 73.232V77.456C156.643 77.584 156.67 77.6853 156.723 77.76C156.787 77.8347 156.872 77.872 156.979 77.872C157.086 77.872 157.214 77.84 157.363 77.776C157.523 77.712 157.683 77.6267 157.843 77.52V77.68C157.704 77.7867 157.539 77.8827 157.347 77.968C157.166 78.0533 156.968 78.1173 156.755 78.16C156.552 78.2133 156.35 78.24 156.147 78.24C155.614 78.24 155.187 78.1013 154.867 77.824C154.558 77.536 154.403 77.072 154.403 76.432C154.403 76.2613 154.403 76.1387 154.403 76.064C154.403 75.9787 154.403 75.9147 154.403 75.872C154.403 75.8187 154.403 75.76 154.403 75.696L154.275 75.6C154.072 76.016 153.832 76.3893 153.555 76.72C153.288 77.04 152.99 77.3173 152.659 77.552C152.328 77.776 151.987 77.9467 151.635 78.064C151.283 78.1813 150.931 78.24 150.579 78.24C150.184 78.24 149.827 78.1707 149.507 78.032C149.187 77.8933 148.931 77.6907 148.739 77.424C148.547 77.1573 148.451 76.832 148.451 76.448C148.451 75.552 148.958 74.864 149.971 74.384C150.995 73.8933 152.472 73.648 154.403 73.648C154.403 72.7413 154.339 72.0267 154.211 71.504C154.083 70.9813 153.859 70.608 153.539 70.384C153.23 70.16 152.782 70.048 152.195 70.048C151.843 70.048 151.528 70.0853 151.251 70.16C150.974 70.224 150.755 70.2987 150.595 70.384C150.435 70.4693 150.355 70.5493 150.355 70.624C150.355 70.6773 150.414 70.736 150.531 70.8C150.648 70.864 150.851 70.9493 151.139 71.056C151.704 71.2587 151.987 71.5627 151.987 71.968C151.987 72.3093 151.832 72.576 151.523 72.768C151.214 72.9493 150.835 73.04 150.387 73.04C149.95 73.04 149.576 72.9493 149.267 72.768C148.968 72.576 148.819 72.2987 148.819 71.936C148.819 71.6693 148.931 71.408 149.155 71.152C149.379 70.896 149.683 70.6613 150.067 70.448C150.462 70.2347 150.91 70.0693 151.411 69.952C151.912 69.824 152.435 69.76 152.979 69.76ZM154.403 73.84C153.507 73.84 152.771 73.9573 152.195 74.192C151.619 74.4267 151.192 74.7307 150.915 75.104C150.638 75.4667 150.499 75.8613 150.499 76.288C150.499 76.544 150.547 76.7573 150.643 76.928C150.739 77.088 150.867 77.2107 151.027 77.296C151.187 77.3707 151.374 77.408 151.587 77.408C151.822 77.408 152.067 77.36 152.323 77.264C152.59 77.168 152.851 77.0187 153.107 76.816C153.363 76.6133 153.603 76.3573 153.827 76.048C154.062 75.7387 154.254 75.3653 154.403 74.928V73.84ZM161.23 78.24C160.558 78.24 160.078 78.048 159.79 77.664C159.502 77.28 159.358 76.704 159.358 75.936V70.32H158.27V70.16L159.374 70L161.358 67.376H161.598V69.856L163.246 70.16V70.32H161.598V76.672C161.598 77.0453 161.651 77.3173 161.758 77.488C161.875 77.648 162.03 77.728 162.222 77.728C162.392 77.728 162.558 77.6747 162.718 77.568C162.878 77.4507 163.038 77.3067 163.198 77.136L163.246 77.36C163.128 77.4667 162.99 77.5733 162.83 77.68C162.68 77.7867 162.52 77.8827 162.35 77.968C162.179 78.0533 161.998 78.1173 161.806 78.16C161.624 78.2133 161.432 78.24 161.23 78.24ZM164.168 78V77.84L165.112 77.68V70.32H164.168V70.16L165.112 70C165.091 69.616 165.085 69.2267 165.096 68.832C165.117 68.4373 165.16 68.096 165.224 67.808C165.331 67.4133 165.507 67.0933 165.752 66.848C165.997 66.592 166.323 66.4 166.728 66.272C167.144 66.144 167.635 66.08 168.2 66.08C168.605 66.08 168.979 66.1173 169.32 66.192C169.661 66.2667 169.96 66.3733 170.216 66.512C170.483 66.6507 170.685 66.8267 170.824 67.04C170.973 67.2427 171.048 67.4773 171.048 67.744C171.048 67.9787 170.979 68.1813 170.84 68.352C170.701 68.512 170.515 68.6347 170.28 68.72C170.045 68.7947 169.779 68.832 169.48 68.832C169.032 68.832 168.653 68.7413 168.344 68.56C168.035 68.3787 167.88 68.112 167.88 67.76C167.88 67.568 167.928 67.4027 168.024 67.264C168.12 67.1253 168.232 67.008 168.36 66.912C168.488 66.816 168.595 66.7253 168.68 66.64C168.776 66.5547 168.824 66.4693 168.824 66.384C168.824 66.3307 168.781 66.2933 168.696 66.272C168.611 66.2507 168.456 66.24 168.232 66.24C167.805 66.24 167.501 66.3467 167.32 66.56C167.139 66.7733 167.048 67.088 167.048 67.504C167.048 67.6853 167.059 67.9147 167.08 68.192C167.112 68.4693 167.149 68.7627 167.192 69.072C167.245 69.3813 167.299 69.6907 167.352 70L169.096 70.064V70.272H167.352V77.68L168.36 77.84V78H164.168ZM174.6 69.76C175.293 69.76 175.906 69.8613 176.44 70.064C176.973 70.2667 177.421 70.56 177.784 70.944C178.146 71.328 178.418 71.7867 178.6 72.32C178.792 72.8427 178.888 73.424 178.888 74.064C178.888 74.6507 178.792 75.2 178.6 75.712C178.418 76.2133 178.146 76.656 177.784 77.04C177.421 77.4133 176.973 77.7067 176.44 77.92C175.917 78.1333 175.304 78.24 174.6 78.24C173.896 78.24 173.272 78.1333 172.728 77.92C172.194 77.7067 171.746 77.4133 171.384 77.04C171.032 76.656 170.765 76.2133 170.584 75.712C170.402 75.2 170.312 74.6507 170.312 74.064C170.312 73.424 170.408 72.8427 170.6 72.32C170.802 71.7867 171.085 71.328 171.448 70.944C171.821 70.56 172.274 70.2667 172.808 70.064C173.341 69.8613 173.938 69.76 174.6 69.76ZM174.616 69.952C174.157 69.952 173.778 70.1333 173.48 70.496C173.181 70.8587 172.957 71.3493 172.808 71.968C172.669 72.5867 172.6 73.2853 172.6 74.064C172.6 74.608 172.637 75.1253 172.712 75.616C172.786 76.096 172.904 76.5173 173.064 76.88C173.234 77.2427 173.448 77.5307 173.704 77.744C173.96 77.9467 174.258 78.048 174.6 78.048C174.941 78.048 175.234 77.9467 175.48 77.744C175.736 77.5413 175.949 77.2587 176.12 76.896C176.29 76.5227 176.413 76.096 176.488 75.616C176.562 75.136 176.6 74.6187 176.6 74.064C176.6 73.488 176.562 72.9493 176.488 72.448C176.413 71.9467 176.296 71.5093 176.136 71.136C175.976 70.7627 175.768 70.4747 175.512 70.272C175.266 70.0587 174.968 69.952 174.616 69.952ZM180.123 78V77.84L180.987 77.632V70.512H180.059V70.336L183.227 69.76V72.272L183.355 72.4C183.505 72.048 183.649 71.7333 183.787 71.456C183.937 71.168 184.086 70.9333 184.235 70.752C184.491 70.4107 184.769 70.16 185.067 70C185.377 69.84 185.718 69.76 186.091 69.76C186.347 69.76 186.593 69.8133 186.827 69.92C187.062 70.016 187.254 70.1707 187.403 70.384C187.553 70.5867 187.627 70.848 187.627 71.168C187.627 71.4133 187.563 71.6373 187.435 71.84C187.307 72.0427 187.131 72.2027 186.907 72.32C186.683 72.4373 186.411 72.496 186.091 72.496C185.814 72.496 185.563 72.448 185.339 72.352C185.115 72.2453 184.939 72.1067 184.811 71.936C184.694 71.7547 184.635 71.552 184.635 71.328C184.635 71.2427 184.641 71.168 184.651 71.104C184.673 71.0293 184.689 70.96 184.699 70.896C184.721 70.832 184.731 70.7733 184.731 70.72C184.731 70.6453 184.705 70.608 184.651 70.608C184.555 70.608 184.438 70.6987 184.299 70.88C184.171 71.0613 184.017 71.3387 183.835 71.712C183.739 71.9253 183.638 72.1707 183.531 72.448C183.425 72.7253 183.323 73.0187 183.227 73.328V77.632L184.107 77.84V78H180.123ZM188.342 78V77.84L189.206 77.632V70.64H188.278V70.464L191.446 69.904V72.384L191.574 72.496C191.809 71.9733 192.086 71.5093 192.406 71.104C192.726 70.688 193.089 70.3627 193.494 70.128C193.899 69.8827 194.347 69.76 194.838 69.76C195.233 69.76 195.574 69.8187 195.862 69.936C196.161 70.0533 196.406 70.2293 196.598 70.464C196.79 70.688 196.934 70.9707 197.03 71.312C197.126 71.6427 197.174 72.0267 197.174 72.464V77.632L198.022 77.84V78H194.086V77.84L194.934 77.632V72.256C194.934 71.6907 194.838 71.264 194.646 70.976C194.454 70.688 194.182 70.544 193.83 70.544C193.585 70.544 193.345 70.64 193.11 70.832C192.886 71.0133 192.667 71.248 192.454 71.536C192.241 71.824 192.049 72.1227 191.878 72.432C191.707 72.7413 191.563 73.0293 191.446 73.296V77.632L192.294 77.84V78H188.342ZM199.814 78V77.84L200.662 77.632V72.256C200.662 71.6907 200.566 71.264 200.374 70.976C200.182 70.688 199.905 70.544 199.542 70.544C199.307 70.544 199.073 70.64 198.838 70.832C198.603 71.0133 198.379 71.248 198.166 71.536C197.953 71.824 197.761 72.1227 197.59 72.432C197.419 72.7413 197.281 73.0293 197.174 73.296V72.384L197.302 72.496C197.526 71.9733 197.798 71.5093 198.118 71.104C198.438 70.688 198.801 70.3627 199.206 70.128C199.622 69.8827 200.075 69.76 200.566 69.76C201.003 69.76 201.371 69.8293 201.67 69.968C201.969 70.096 202.203 70.288 202.374 70.544C202.555 70.7893 202.689 71.088 202.774 71.44C202.859 71.7813 202.902 72.16 202.902 72.576V77.632L203.83 77.84V78H199.814Z" fill="white"/>
<line x1="237" y1="61.5" x2="28" y2="61.5" stroke="white"/>
</svg>
